{"title":"Youre the Worst S03E03 720p AMZN WEBRip HEVC 2CH x265","uid":15835159,"size":199242565,"categoryP":"video","categoryS":"hd___tv_shows","magnet":"?xt=urn:btih:69b3ed4cfed6fd57799126fb41b43eb68d3bd8f1&amp;dn=Youre+the+Worst+S03E03+720p+AMZN+WEBRip+HEVC+2CH+x265&amp;tr=udp%3A%2F%2Ftracker.leechers-paradise.org%3A6969&amp;tr=udp%3A%2F%2Fzer0day.ch%3A1337&amp;tr=udp%3A%2F%2Fopen.demonii.com%3A1337&amp;tr=udp%3A%2F%2Ftracker.coppersurfer.tk%3A6969&amp;tr=udp%3A%2F%2Fexodus.desync.com%3A6969","seeders":2,"leechers":3,"uploader":"nayhtut","files":1,"time":1473962496,"description":"Source: Youre the Worst S03E03 1080p AMZN WEBRip DD5.1 x264-CasStudio(2.60 GB)\r\n\r\nComplete name : Youre.the.Worst.S03E03.720p.AMZN.WEBRip.HEVC.2CH.x265.mkv\r\nFormat                                   : Matroska\r\nFormat version                           : Version 4 / Version 2\r\nFile size                                : 190 MiB\r\nDuration                                 : 25mn 49s\r\nOverall bit rate                         : 1 029 Kbps\r\nWriting application                      : Lavf57.25.100\r\nWriting library                          : Lavf57.25.100\r\n\r\nVideo\r\n\r\nID                                       : 1\r\nFormat                                   : V_MPEGH/ISO/HEVC\r\nCodec ID                                 : V_MPEGH/ISO/HEVC\r\nDuration                                 : 25mn 49s\r\nBit rate                                 : 816 Kbps\r\nWidth                                    : 1 274 pixels\r\nHeight                                   : 720 pixels\r\nDisplay aspect ratio                     : 16:9\r\nFrame rate                               : 25.000 fps\r\nBits/(Pixel*Frame)                       : 0.036\r\nStream size                              : 151 MiB (79%)\r\nWriting library                          : Lavc57.48.101 libx265\r\nLanguage                                 : English\r\nDefault                                  : Yes\r\nForced                                   : No\r\nDURATION                                 : 00:25:49.731000000\r\n\r\nAudio\r\n\r\nID                                       : 2\r\nFormat                                   : AC-3\r\nFormat/Info                              : Audio Coding 3\r\nMode extension                           : CM (complete main)\r\nFormat settings, Endianness              : Big\r\nCodec ID                                 : A_AC3\r\nDuration                                 : 25mn 49s\r\nBit rate mode                            : Constant\r\nBit rate                                 : 192 Kbps\r\nChannel(s)                               : 2 channels\r\nChannel positions                        : Front: L R\r\nSampling rate                            : 48.0 KHz\r\nBit depth                                : 16 bits\r\nCompression mode                         : Lossy\r\nStream size                              : 35.5 MiB (19%)\r\nWriting library                          : Lavc57.24.102 ac3\r\nLanguage                                 : English\r\nDefault                                  : Yes\r\nForced                                   : No\r\nDURATION                                 : 00:25:49.727000000\r\n\r\nText\r\n\r\nID                                       : 3\r\nFormat                                   : ASS\r\nCodec ID                                 : S_TEXT/ASS\r\nCodec ID/Info                            : Advanced Sub Station Alpha\r\nCompression mode                         : Lossless\r\nWriting library                          : Lavc57.48.101 ssa\r\nLanguage                                 : English","torrent":{"xt":"urn:btih:69b3ed4cfed6fd57799126fb41b43eb68d3bd8f1","amp;dn":"Youre+the+Worst+S03E03+720p+AMZN+WEBRip+HEVC+2CH+x265","amp;tr":["udp%3A%2F%2Ftracker.leechers-paradise.org%3A6969","udp%3A%2F%2Fzer0day.ch%3A1337","udp%3A%2F%2Fopen.demonii.com%3A1337","udp%3A%2F%2Ftracker.coppersurfer.tk%3A6969","udp%3A%2F%2Fexodus.desync.com%3A6969"],"infoHash":"69b3ed4cfed6fd57799126fb41b43eb68d3bd8f1","infoHashBuffer":{"type":"Buffer","data":[105,179,237,76,254,214,253,87,121,145,38,251,65,180,62,182,141,59,216,241]},"announce":[],"urlList":[]}}